<svg version="1.1" id="Layer_1" xmlns="http://www.w3.org/2000/svg" xmlns:xlink="http://www.w3.org/1999/xlink" width="27px" height="34px"
	 viewBox="0 0 27 34" xml:space="preserve">
<path d="M13.6,0l-0.1,0L0,1.4V26l13.5,8L27,26V1.4L13.6,0z M25.2,25l-11.7,7L1.8,25V14.9l11.7,6.9l0,1.3l-8-4.8l0,1.2
	l8,4.8l0,1.3l-8-4.8l0,1.2l8,4.8l8.1-4.8v-1.2l0,0v-0.4V20v-3.1l3.6-2.2V25z M25.2,13.4L22,15.3l-1.5,0.9L13.5,12l0,1.2l6,3.6
	l-0.1,0l-0.1,0.1l-0.9,0.5l-5-3l0,1.2l3.9,2.3l-0.9,0.6l0,0l-3-1.7l0,1.2l2,1.1l-2,1.2L1.8,13.6l11.6-7v0L25.2,13.4z M25.2,12.2
	L13.4,5.3v0l0,0l0,0v0L1.8,12.2V3l11.7-1.2L25.2,3V12.2z"/>
</svg>
